<svg xmlns="http://www.w3.org/2000/svg" viewBox="0 0 64 64" aria-labelledby="title"
aria-describedby="desc" role="img" xmlns:xlink="http://www.w3.org/1999/xlink" width="20" height="20">
  <title>Document</title>
  <desc>A solid styled icon from Orion Icon Library.</desc>
  <path data-name="layer1"
  fill="#888888" d="M39 4v12h12L39 4z"></path>
  <path data-name="layer1" d="M35 2H11v60h42V20H35zM21 20h8a2 2 0 1 1 0 4h-8a2 2 0 0 1 0-4zm18 34H21a2 2 0 0 1 0-4h18a2 2 0 0 1 0 4zm4-10H21a2 2 0 0 1 0-4h22a2 2 0 0 1 0 4zm0-14a2 2 0 0 1 0 4H21a2 2 0 0 1 0-4z"
  fill="#888888"></path>
</svg>